<?xml version="1.0" standalone="no"?>
<!DOCTYPE svg PUBLIC "-//W3C//DTD SVG 20010904//EN"
 "http://www.w3.org/TR/2001/REC-SVG-20010904/DTD/svg10.dtd">
<svg version="1.0" xmlns="http://www.w3.org/2000/svg"
 width="500.000000pt" height="500.000000pt" viewBox="0 0 500.000000 500.000000"
 preserveAspectRatio="xMidYMid meet">
<metadata>
Created by potrace 1.11, written by Peter Selinger 2001-2013
</metadata>
<g transform="translate(0.000000,500.000000) scale(0.100000,-0.100000)"
fill="#000000" stroke="none">
<path d="M1930 4579 c-108 -12 -162 -21 -320 -54 -43 -9 -197 -62 -285 -98
-581 -236 -1040 -751 -1213 -1362 -19 -65 -25 -91 -37 -155 -3 -14 -8 -38 -11
-55 -7 -33 -9 -45 -20 -155 -10 -94 -10 -258 -1 -375 52 -659 434 -1273 1007
-1617 231 -139 521 -242 765 -273 28 -4 77 -11 110 -15 101 -15 406 -4 535 19
660 116 1228 535 1526 1125 l56 113 372 -1 371 -1 1 -527 0 -528 23 -24 c13
-13 30 -26 39 -28 30 -8 82 12 98 38 16 23 17 172 16 1867 0 1013 -1 1856 -1
1873 -3 99 -145 115 -169 19 -4 -16 -7 -258 -7 -537 l1 -508 -373 0 -374 0
-28 63 c-44 97 -137 253 -211 352 -338 455 -834 752 -1390 831 -19 3 -51 7
-70 10 -59 8 -341 10 -410 3z m445 -184 c230 -38 391 -87 582 -179 271 -132
508 -326 689 -566 281 -372 422 -856 382 -1311 -72 -817 -656 -1500 -1453
-1698 -44 -11 -102 -23 -130 -27 -27 -3 -59 -9 -70 -12 -11 -3 -117 -6 -235
-8 -220 -2 -293 5 -480 49 -323 77 -641 258 -886 504 -306 307 -494 691 -549
1122 -13 101 -14 412 -2 471 3 14 8 41 11 60 56 375 245 749 524 1034 307 313
696 505 1137 562 28 3 51 7 53 9 6 6 387 -3 427 -10z m2405 -1387 l0 -138 -47
-1 c-49 0 -491 0 -596 1 -43 0 -57 3 -54 13 2 6 0 22 -4 35 -5 13 -11 37 -14
55 -3 18 -15 61 -25 96 -11 35 -20 66 -20 70 0 3 171 6 380 6 l380 0 0 -137z
m6 -510 l-1 -193 -290 0 -290 0 0 192 0 193 291 0 290 0 0 -192z m-6 -507 l0
-140 -380 1 c-209 0 -380 2 -380 3 0 2 12 47 26 102 14 54 30 115 35 136 l10
37 344 0 345 0 0 -139z"/>
<path d="M1980 3980 c-30 -4 -80 -11 -110 -15 -114 -15 -373 -103 -384 -130
-8 -22 5 -54 24 -60 10 -3 36 2 57 11 180 77 338 109 543 109 220 0 357 -26
549 -103 41 -17 80 -28 88 -25 15 6 28 47 20 67 -11 29 -314 126 -442 141 -80
10 -285 12 -345 5z"/>
<path d="M1365 3628 c-27 -15 -35 -28 -35 -58 0 -19 48 -72 206 -231 l206
-206 -35 -36 c-19 -21 -38 -37 -43 -37 -5 0 -99 90 -209 199 -110 110 -207
200 -215 201 -51 7 -80 -16 -80 -62 0 -27 27 -58 203 -235 111 -112 202 -205
203 -206 1 -1 -16 -19 -36 -40 l-37 -38 -208 206 c-182 179 -212 205 -239 205
-24 0 -36 -7 -48 -27 -13 -24 -17 -57 -6 -69 2 -2 153 -154 337 -338 304 -306
361 -356 399 -350 6 1 23 2 36 3 14 0 48 22 79 51 l54 49 29 -30 28 -30 -441
-442 c-243 -243 -448 -456 -457 -474 -61 -123 75 -261 201 -203 24 12 187 167
448 429 225 226 414 411 420 411 5 0 208 -199 450 -442 255 -256 453 -446 472
-454 90 -38 191 14 211 109 17 85 23 77 -485 586 -260 261 -473 477 -473 480
0 4 25 31 55 61 45 44 52 56 42 68 -7 9 7 4 29 -11 156 -98 363 -74 480 56
110 122 236 360 279 526 37 142 22 250 -42 298 -98 75 -364 16 -622 -140 -195
-117 -274 -216 -287 -358 -10 -100 23 -212 80 -279 l21 -25 -23 19 -23 20 -72
-71 c-43 -42 -81 -70 -94 -71 -14 0 -40 16 -68 42 l-44 43 35 34 c46 44 76
102 70 137 -2 15 -5 33 -5 40 -2 23 -673 691 -701 696 -14 3 -34 1 -45 -6z"/>
<path d="M3362 3218 c-18 -18 -15 -31 24 -115 41 -89 88 -225 105 -301 15 -70
41 -96 77 -74 22 15 21 49 -3 139 -29 111 -62 198 -109 291 -29 58 -41 72 -59
72 -13 0 -28 -5 -35 -12z"/>
<path d="M783 3134 c-24 -10 -123 -308 -123 -371 0 -26 33 -47 60 -38 11 4 23
18 26 33 31 137 51 201 85 279 24 54 24 80 0 93 -21 11 -29 11 -48 4z"/>
<path d="M621 2610 c-73 -17 -124 -82 -124 -159 0 -94 67 -165 157 -165 64 1
109 24 141 73 81 122 -30 283 -174 251z m90 -110 c62 -61 -1 -153 -82 -120
-59 25 -60 117 0 139 41 15 51 13 82 -19z"/>
<path d="M3561 2610 c-119 -27 -166 -180 -83 -274 30 -33 97 -58 139 -50 94
17 143 73 146 164 2 106 -96 183 -202 160z m73 -92 c45 -20 55 -86 19 -123
-39 -38 -89 -32 -116 15 -26 44 -12 91 33 109 33 13 35 13 64 -1z"/>
<path d="M713 2159 c-22 -8 -24 -12 -26 -41 -4 -53 147 -387 200 -444 27 -29
37 -30 64 -3 l20 20 -38 67 c-57 101 -108 210 -133 282 -46 134 -46 134 -87
119z"/>
<path d="M3492 2158 c-5 -7 -22 -49 -36 -93 -28 -84 -115 -271 -148 -317 -28
-40 -30 -65 -6 -82 38 -27 65 1 141 146 56 106 117 270 117 315 0 34 -48 55
-68 31z"/>
<path d="M2894 1328 c-21 -11 -50 -28 -64 -38 -113 -79 -382 -167 -560 -184
-297 -29 -577 29 -832 171 -82 46 -100 53 -117 43 -30 -16 -27 -55 7 -78 115
-82 322 -164 509 -203 113 -23 360 -32 468 -17 219 30 424 102 600 211 62 38
74 52 68 78 -9 34 -36 40 -79 17z"/>
</g>
</svg>
